# xmcd
#
# Track frame offsets: 
#        150
#        17584
#        34759
#        51636
#
# Disc length: 922 seconds
#
# Revision: 1
# Processed by: cddbd v1.5.2PL0 Copyright (c) Steve Scherf et al.
# Submitted via: ExactAudioCopy v1.3
#
DISCID=2e039804
DTITLE=Michael Jackson - One More Chance
DYEAR=2003
DGENRE=Pop
TTITLE0=One More Chance
TTITLE1=One More Chance (Paul Oakenfold Mix)
TTITLE2=One More Chance (Metro Mix)
TTITLE3=One More Chance (Ron G Club Mix)
EXTD=
EXTT0=
EXTT1=
EXTT2=
EXTT3=
PLAYORDER=
